<svg width="18" height="18" viewBox="0 0 18 18" fill="none" xmlns="http://www.w3.org/2000/svg">
<path d="M9.50625 1.40626C8.24319 1.40444 7.00265 1.74066 5.91338 2.38004C4.8241 3.01942 3.92578 3.93866 3.31164 5.04236C2.69749 6.14606 2.3899 7.394 2.42079 8.65668C2.45167 9.91937 2.8199 11.1508 3.48727 12.2231L1.40625 16.5938L5.7762 14.5127C6.70817 15.0922 7.76197 15.4473 8.85457 15.5501C9.94717 15.6529 11.0487 15.5006 12.0724 15.1051C13.0961 14.7096 14.014 14.0819 14.7537 13.2713C15.4935 12.4606 16.0349 11.4893 16.3353 10.4338C16.6357 9.37828 16.6868 8.26743 16.4848 7.18877C16.2827 6.11011 15.8329 5.09311 15.1709 4.2179C14.5088 3.34268 13.6525 2.63317 12.6695 2.14526C11.6865 1.65735 10.6037 1.40437 9.50625 1.40626V1.40626Z" stroke="#8AA398" stroke-width="1.12" stroke-linecap="round" stroke-linejoin="round"/>
</svg>
