<svg width="18" height="17" viewBox="0 0 18 17" fill="none" xmlns="http://www.w3.org/2000/svg">
<path d="M10.125 15.5C11.5713 15.5 12.9851 15.0711 14.1876 14.2676C15.3901 13.4641 16.3274 12.3221 16.8809 10.9859C17.4343 9.64969 17.5791 8.17939 17.297 6.7609C17.0148 5.34242 16.3184 4.03946 15.2957 3.01678C14.273 1.99411 12.9701 1.29767 11.5516 1.01551C10.1331 0.733357 8.66281 0.878168 7.32663 1.43163C5.99044 1.9851 4.84839 2.92236 4.04488 4.1249C3.24137 5.32743 2.8125 6.74123 2.8125 8.1875V8.75" stroke="#8AA398" stroke-width="1.12" stroke-linecap="round" stroke-linejoin="round"/>
<path d="M0.5625 6.49762L2.8125 8.74762L5.0625 6.49762" stroke="#8AA398" stroke-width="1.12" stroke-linecap="round" stroke-linejoin="round"/>
<path d="M9.5625 3.68512V8.74762H13.5" stroke="#8AA398" stroke-width="1.12" stroke-linecap="round" stroke-linejoin="round"/>
</svg>
