<svg width="14" height="18" viewBox="0 0 14 18" fill="none" xmlns="http://www.w3.org/2000/svg">
<path d="M5.6499 15.5812C5.73564 15.8733 5.91367 16.1297 6.15734 16.3122C6.401 16.4946 6.6972 16.5932 7.00159 16.5932C7.30598 16.5932 7.60218 16.4946 7.84584 16.3122C8.08951 16.1297 8.26754 15.8733 8.35328 15.5812" stroke="#8AA398" stroke-width="1.12" stroke-linecap="round" stroke-linejoin="round"/>
<path d="M7 2.925V1.40625" stroke="#8AA398" stroke-width="1.12" stroke-linecap="round" stroke-linejoin="round"/>
<path d="M6.9998 2.92499C8.34246 2.92499 9.63013 3.45836 10.5795 4.40776C11.5289 5.35716 12.0623 6.64483 12.0623 7.98749C12.0623 12.7435 13.0748 13.5562 13.0748 13.5562H0.924805C0.924805 13.5562 1.9373 12.2629 1.9373 7.98749C1.9373 6.64483 2.47067 5.35716 3.42008 4.40776C4.36948 3.45836 5.65715 2.92499 6.9998 2.92499V2.92499Z" stroke="#8AA398" stroke-width="1.12" stroke-linecap="round" stroke-linejoin="round"/>
</svg>
