<svg width="18" height="18" viewBox="0 0 18 18" fill="none" xmlns="http://www.w3.org/2000/svg">
<path d="M2.81494 10.4579V16.6454H7.31494V12.1454C7.31494 11.847 7.43347 11.5609 7.64445 11.3499C7.85543 11.1389 8.14157 11.0204 8.43994 11.0204H9.56494C9.86331 11.0204 10.1495 11.1389 10.3604 11.3499C10.5714 11.5609 10.6899 11.847 10.6899 12.1454V16.6454H15.1899V10.4579" stroke="#03A84E" stroke-width="1.12" stroke-linecap="round" stroke-linejoin="round"/>
<path d="M0.564941 9.3329L8.20669 1.69115C8.31117 1.58661 8.43522 1.50368 8.57176 1.44709C8.70829 1.39051 8.85464 1.36139 9.00244 1.36139C9.15024 1.36139 9.29659 1.39051 9.43313 1.44709C9.56967 1.50368 9.69372 1.58661 9.79819 1.69115L17.4399 9.3329" stroke="#03A84E" stroke-width="1.12" stroke-linecap="round" stroke-linejoin="round"/>
</svg>
