<svg width="20" height="20" viewBox="0 0 20 20" fill="none" xmlns="http://www.w3.org/2000/svg">
<path d="M10.0012 5.90002C9.94559 5.90002 9.89122 5.91652 9.84497 5.94742C9.79872 5.97833 9.76267 6.02225 9.74138 6.07364C9.72009 6.12504 9.71452 6.18159 9.72538 6.23614C9.73623 6.2907 9.76301 6.34081 9.80235 6.38015C9.84168 6.41948 9.89179 6.44627 9.94635 6.45712C10.0009 6.46797 10.0575 6.4624 10.1089 6.44112C10.1602 6.41983 10.2042 6.38378 10.2351 6.33753C10.266 6.29128 10.2825 6.2369 10.2825 6.18127C10.2825 6.10668 10.2528 6.03515 10.2001 5.9824C10.1473 5.92966 10.0758 5.90002 10.0012 5.90002Z" stroke="#0F241B" stroke-width="1.125" stroke-linecap="round" stroke-linejoin="round"/>
<path d="M10 14.0625V8.46252" stroke="#0F241B" stroke-width="1.125" stroke-miterlimit="10" stroke-linecap="round"/>
<path d="M1.5625 10C1.5625 12.2378 2.45145 14.3839 4.03379 15.9662C5.61612 17.5486 7.76224 18.4375 10 18.4375C12.2378 18.4375 14.3839 17.5486 15.9662 15.9662C17.5486 14.3839 18.4375 12.2378 18.4375 10C18.4375 7.76224 17.5486 5.61612 15.9662 4.03379C14.3839 2.45145 12.2378 1.5625 10 1.5625C7.76224 1.5625 5.61612 2.45145 4.03379 4.03379C2.45145 5.61612 1.5625 7.76224 1.5625 10V10Z" stroke="#0F241B" stroke-width="1.125" stroke-miterlimit="10"/>
</svg>
