<svg xmlns="http://www.w3.org/2000/svg" width="20" height="20" viewBox="0 0 20 20" fill="none">
  <path d="M10 13.4375C9.95055 13.4375 9.90222 13.4522 9.86111 13.4796C9.82 13.5071 9.78795 13.5461 9.76903 13.5918C9.75011 13.6375 9.74516 13.6878 9.7548 13.7363C9.76445 13.7848 9.78826 13.8293 9.82322 13.8643C9.85819 13.8992 9.90273 13.923 9.95123 13.9327C9.99972 13.9423 10.05 13.9374 10.0957 13.9185C10.1414 13.8995 10.1804 13.8675 10.2079 13.8264C10.2353 13.7853 10.25 13.7369 10.25 13.6875C10.25 13.6212 10.2237 13.5576 10.1768 13.5107C10.1299 13.4638 10.0663 13.4375 10 13.4375Z" stroke="#4B6358" stroke-width="1.125" stroke-linecap="round" stroke-linejoin="round"/>
  <path d="M10 11V6" stroke="#FAB900" stroke-width="1.125" stroke-miterlimit="10" stroke-linecap="round"/>
  <path d="M2 10C2 12.1217 2.84285 14.1566 4.34315 15.6569C5.84344 17.1571 7.87827 18 10 18C12.1217 18 14.1566 17.1571 15.6569 15.6569C17.1571 14.1566 18 12.1217 18 10C18 7.87827 17.1571 5.84344 15.6569 4.34315C14.1566 2.84285 12.1217 2 10 2C7.87827 2 5.84344 2.84285 4.34315 4.34315C2.84285 5.84344 2 7.87827 2 10V10Z" stroke="#FAB900" stroke-width="1.125" stroke-miterlimit="10"/>
</svg>